<mxfile host="app.diagrams.net" agent="Mozilla/5.0 (Windows NT 10.0; Win64; x64) AppleWebKit/537.36 (KHTML, like Gecko) Chrome/137.0.0.0 Safari/537.36" version="27.1.4">
  <diagram name="Page-1" id="yqmBW8P-q2pL00_qD3kV">
    <mxGraphModel dx="985" dy="623" grid="1" gridSize="10" guides="1" tooltips="1" connect="1" arrows="1" fold="1" page="1" pageScale="1" pageWidth="827" pageHeight="1169" math="0" shadow="0">
      <root>
        <mxCell id="0" />
        <mxCell id="1" parent="0" />
        <mxCell id="Lm8S1mTNGOBxI5HwljYJ-46" style="rounded=0;orthogonalLoop=1;jettySize=auto;html=1;" edge="1" parent="1" source="Lm8S1mTNGOBxI5HwljYJ-38" target="Lm8S1mTNGOBxI5HwljYJ-40">
          <mxGeometry relative="1" as="geometry" />
        </mxCell>
        <mxCell id="Lm8S1mTNGOBxI5HwljYJ-47" style="rounded=0;orthogonalLoop=1;jettySize=auto;html=1;" edge="1" parent="1" source="Lm8S1mTNGOBxI5HwljYJ-38" target="Lm8S1mTNGOBxI5HwljYJ-42">
          <mxGeometry relative="1" as="geometry" />
        </mxCell>
        <mxCell id="Lm8S1mTNGOBxI5HwljYJ-48" style="rounded=0;orthogonalLoop=1;jettySize=auto;html=1;" edge="1" parent="1" source="Lm8S1mTNGOBxI5HwljYJ-38" target="Lm8S1mTNGOBxI5HwljYJ-41">
          <mxGeometry relative="1" as="geometry" />
        </mxCell>
        <mxCell id="Lm8S1mTNGOBxI5HwljYJ-38" value="" style="ellipse;whiteSpace=wrap;html=1;aspect=fixed;" vertex="1" parent="1">
          <mxGeometry x="200" y="240" width="120" height="120" as="geometry" />
        </mxCell>
        <mxCell id="Lm8S1mTNGOBxI5HwljYJ-53" style="rounded=0;orthogonalLoop=1;jettySize=auto;html=1;" edge="1" parent="1" source="Lm8S1mTNGOBxI5HwljYJ-40" target="Lm8S1mTNGOBxI5HwljYJ-44">
          <mxGeometry relative="1" as="geometry" />
        </mxCell>
        <mxCell id="Lm8S1mTNGOBxI5HwljYJ-54" style="rounded=0;orthogonalLoop=1;jettySize=auto;html=1;" edge="1" parent="1" source="Lm8S1mTNGOBxI5HwljYJ-40" target="Lm8S1mTNGOBxI5HwljYJ-45">
          <mxGeometry relative="1" as="geometry" />
        </mxCell>
        <mxCell id="Lm8S1mTNGOBxI5HwljYJ-40" value="" style="ellipse;whiteSpace=wrap;html=1;aspect=fixed;" vertex="1" parent="1">
          <mxGeometry x="359" y="160" width="120" height="120" as="geometry" />
        </mxCell>
        <mxCell id="Lm8S1mTNGOBxI5HwljYJ-57" style="rounded=0;orthogonalLoop=1;jettySize=auto;html=1;" edge="1" parent="1" source="Lm8S1mTNGOBxI5HwljYJ-41" target="Lm8S1mTNGOBxI5HwljYJ-45">
          <mxGeometry relative="1" as="geometry" />
        </mxCell>
        <mxCell id="Lm8S1mTNGOBxI5HwljYJ-58" style="rounded=0;orthogonalLoop=1;jettySize=auto;html=1;" edge="1" parent="1" source="Lm8S1mTNGOBxI5HwljYJ-41" target="Lm8S1mTNGOBxI5HwljYJ-44">
          <mxGeometry relative="1" as="geometry" />
        </mxCell>
        <mxCell id="Lm8S1mTNGOBxI5HwljYJ-41" value="" style="ellipse;whiteSpace=wrap;html=1;aspect=fixed;" vertex="1" parent="1">
          <mxGeometry x="359" y="480" width="120" height="120" as="geometry" />
        </mxCell>
        <mxCell id="Lm8S1mTNGOBxI5HwljYJ-55" style="rounded=0;orthogonalLoop=1;jettySize=auto;html=1;" edge="1" parent="1" source="Lm8S1mTNGOBxI5HwljYJ-42" target="Lm8S1mTNGOBxI5HwljYJ-44">
          <mxGeometry relative="1" as="geometry" />
        </mxCell>
        <mxCell id="Lm8S1mTNGOBxI5HwljYJ-56" style="rounded=0;orthogonalLoop=1;jettySize=auto;html=1;" edge="1" parent="1" source="Lm8S1mTNGOBxI5HwljYJ-42" target="Lm8S1mTNGOBxI5HwljYJ-45">
          <mxGeometry relative="1" as="geometry" />
        </mxCell>
        <mxCell id="Lm8S1mTNGOBxI5HwljYJ-42" value="" style="ellipse;whiteSpace=wrap;html=1;aspect=fixed;" vertex="1" parent="1">
          <mxGeometry x="359" y="320" width="120" height="120" as="geometry" />
        </mxCell>
        <mxCell id="Lm8S1mTNGOBxI5HwljYJ-50" style="rounded=0;orthogonalLoop=1;jettySize=auto;html=1;" edge="1" parent="1" source="Lm8S1mTNGOBxI5HwljYJ-43" target="Lm8S1mTNGOBxI5HwljYJ-42">
          <mxGeometry relative="1" as="geometry" />
        </mxCell>
        <mxCell id="Lm8S1mTNGOBxI5HwljYJ-51" style="rounded=0;orthogonalLoop=1;jettySize=auto;html=1;" edge="1" parent="1" source="Lm8S1mTNGOBxI5HwljYJ-43" target="Lm8S1mTNGOBxI5HwljYJ-41">
          <mxGeometry relative="1" as="geometry" />
        </mxCell>
        <mxCell id="Lm8S1mTNGOBxI5HwljYJ-52" style="rounded=0;orthogonalLoop=1;jettySize=auto;html=1;" edge="1" parent="1" source="Lm8S1mTNGOBxI5HwljYJ-43" target="Lm8S1mTNGOBxI5HwljYJ-40">
          <mxGeometry relative="1" as="geometry" />
        </mxCell>
        <mxCell id="Lm8S1mTNGOBxI5HwljYJ-43" value="" style="ellipse;whiteSpace=wrap;html=1;aspect=fixed;" vertex="1" parent="1">
          <mxGeometry x="200" y="400" width="120" height="120" as="geometry" />
        </mxCell>
        <mxCell id="Lm8S1mTNGOBxI5HwljYJ-44" value="" style="ellipse;whiteSpace=wrap;html=1;aspect=fixed;" vertex="1" parent="1">
          <mxGeometry x="520" y="240" width="120" height="120" as="geometry" />
        </mxCell>
        <mxCell id="Lm8S1mTNGOBxI5HwljYJ-45" value="" style="ellipse;whiteSpace=wrap;html=1;aspect=fixed;" vertex="1" parent="1">
          <mxGeometry x="520" y="400" width="120" height="120" as="geometry" />
        </mxCell>
      </root>
    </mxGraphModel>
  </diagram>
</mxfile>
